<svg width="24" height="24" viewBox="0 0 24 24" fill="none" xmlns="http://www.w3.org/2000/svg">
<path d="M19.5 23.625H4.5C3.46613 23.625 2.625 22.7839 2.625 21.75V2.25001C2.625 1.21613 3.46613 0.375007 4.5 0.375007H12.1288C12.3751 0.374336 12.6191 0.42253 12.8466 0.516799C13.0742 0.611068 13.2808 0.749539 13.4544 0.924194L20.8258 8.29557C21.0005 8.46923 21.1389 8.67582 21.2332 8.90336C21.3275 9.13091 21.3757 9.3749 21.375 9.62119V21.75C21.375 22.7839 20.5339 23.625 19.5 23.625ZM4.5 1.12501C3.87956 1.12501 3.375 1.62957 3.375 2.25001V21.75C3.375 22.3704 3.87956 22.875 4.5 22.875H19.5C20.1204 22.875 20.625 22.3704 20.625 21.75V9.62119C20.6241 9.32306 20.5057 9.03729 20.2956 8.82582L12.9242 1.45444C12.82 1.34967 12.696 1.26661 12.5595 1.21006C12.423 1.15351 12.2766 1.1246 12.1288 1.12501H4.5Z" fill="#FD4233"/>
<path d="M17.8518 15.06C17.8387 14.9644 17.7618 14.8444 17.6793 14.7637C17.443 14.5312 16.9237 14.4094 16.1324 14.3981C15.5962 14.3925 14.9512 14.4394 14.2724 14.535C13.9687 14.3606 13.6555 14.1694 13.4099 13.9387C12.748 13.3219 12.1968 12.465 11.8518 11.5219C11.8743 11.4337 11.893 11.3569 11.9118 11.2781C11.9118 11.2781 12.283 9.16312 12.1855 8.44687C12.1724 8.34937 12.163 8.32125 12.1368 8.24438L12.1049 8.16187C12.0037 7.9275 11.8049 7.68 11.4937 7.69312L11.3099 7.6875H11.3062C10.9574 7.6875 10.6762 7.86563 10.6012 8.13C10.3762 8.9625 10.6087 10.2094 11.0305 11.8219L10.9218 12.0844C10.6199 12.8231 10.2412 13.5656 9.9074 14.22L9.86428 14.3044C9.51178 14.9925 9.19303 15.5775 8.9024 16.0725L8.60428 16.23C8.58178 16.2412 8.0699 16.5131 7.9499 16.5844C6.93178 17.1937 6.25678 17.8837 6.14428 18.4312C6.10865 18.6075 6.1349 18.8306 6.31678 18.9338L6.60553 19.08C6.73115 19.1419 6.86428 19.1737 6.99928 19.1737C7.72491 19.1737 8.56678 18.27 9.72741 16.245C11.0662 15.81 12.5924 15.4462 13.9293 15.2475C14.9474 15.8194 16.1999 16.2187 16.9912 16.2187C17.1318 16.2187 17.2537 16.2056 17.3512 16.1794C17.503 16.1381 17.6305 16.0519 17.7093 15.9356C17.863 15.705 17.893 15.3862 17.8518 15.06ZM6.84178 18.6244C6.97303 18.2625 7.49803 17.5462 8.2724 16.9125C8.32115 16.8731 8.44115 16.7606 8.5499 16.6556C7.7399 17.9475 7.19803 18.4612 6.84178 18.6244ZM11.428 8.0625C11.6605 8.0625 11.7937 8.64937 11.8049 9.20062C11.8162 9.75187 11.6868 10.1381 11.5274 10.425C11.3943 10.0012 11.3305 9.33375 11.3305 8.89688C11.3305 8.89688 11.3212 8.0625 11.428 8.0625ZM10.0593 15.5887C10.2224 15.2981 10.3912 14.9906 10.5637 14.6662C10.9855 13.8694 11.2518 13.2469 11.4487 12.735C11.8424 13.4512 12.3337 14.0606 12.9093 14.5481C12.9824 14.6081 13.0593 14.67 13.138 14.7319C11.9662 14.9625 10.9518 15.2456 10.0593 15.5887ZM17.4524 15.5231C17.3812 15.5662 17.1768 15.5925 17.0455 15.5925C16.6218 15.5925 16.0949 15.3994 15.358 15.0825C15.6412 15.0619 15.9018 15.0506 16.1343 15.0506C16.5599 15.0506 16.6855 15.0487 17.1037 15.1556C17.5199 15.2625 17.5255 15.4781 17.4524 15.5231Z" fill="#FF402F"/>
</svg>
